<?xml version="1.0" standalone="no"?>
<!DOCTYPE svg PUBLIC "-//W3C//DTD SVG 20010904//EN"
 "http://www.w3.org/TR/2001/REC-SVG-20010904/DTD/svg10.dtd">
<svg version="1.0" xmlns="http://www.w3.org/2000/svg"
 width="700.000000pt" height="700.000000pt" viewBox="0 0 700.000000 700.000000"
 preserveAspectRatio="xMidYMid meet">
<metadata>
Created by potrace 1.11, written by Peter Selinger 2001-2013
</metadata>
<g transform="translate(0.000000,700.000000) scale(0.100000,-0.100000)"
fill="#000000" stroke="none">
<path d="M2673 6894 c-71 -21 -201 -94 -233 -130 -37 -43 -39 -80 -9 -202 32
-134 54 -199 151 -445 89 -226 129 -301 187 -355 45 -41 134 -92 168 -96 43
-6 90 20 102 56 25 70 6 213 -42 319 -41 90 -50 130 -51 219 -1 108 8 173 39
285 14 49 25 104 25 121 0 62 -119 208 -186 228 -42 13 -110 13 -151 0z"/>
<path d="M4015 6630 c-74 -18 -126 -58 -170 -134 -33 -57 -44 -114 -50 -268
-5 -134 -13 -252 -20 -298 -2 -14 -7 -63 -10 -110 -4 -47 -9 -94 -12 -105 -12
-54 -10 -222 4 -288 25 -123 100 -244 174 -283 87 -44 157 -5 229 129 106 195
117 268 114 703 -1 187 -5 352 -8 367 -12 50 -55 158 -77 190 -17 25 -76 87
-83 87 -1 0 -15 4 -31 8 -17 5 -43 5 -60 2z"/>
<path d="M1559 6070 c-68 -19 -97 -46 -120 -114 -36 -106 -1 -271 106 -492 36
-73 80 -171 100 -218 31 -75 152 -423 152 -436 0 -3 8 -32 17 -64 25 -85 88
-205 143 -273 85 -105 122 -128 194 -120 113 14 198 105 183 195 -13 76 -58
164 -112 222 -34 36 -104 180 -117 240 -42 189 -97 454 -110 530 -27 161 -91
292 -196 401 -102 104 -178 145 -240 129z"/>
<path d="M2967 5400 c-157 -50 -187 -122 -97 -234 50 -62 156 -154 207 -180
80 -40 168 7 198 106 11 39 11 51 -4 94 -26 76 -95 169 -158 212 -38 26 -69
27 -146 2z"/>
<path d="M690 4983 c-50 -18 -110 -109 -111 -170 -3 -96 13 -383 23 -428 18
-83 33 -107 140 -228 35 -38 71 -79 81 -91 97 -112 246 -273 361 -390 49 -49
84 -92 79 -93 -38 -13 -147 -88 -195 -135 -33 -32 -61 -58 -62 -58 -2 0 -7 17
-11 37 -12 66 -36 113 -66 129 -21 11 -68 14 -185 15 -85 1 -158 -2 -162 -6
-4 -4 -8 -304 -8 -668 -1 -364 -3 -691 -4 -726 -4 -105 38 -142 162 -141 187
1 281 9 297 25 14 14 16 68 17 463 2 476 5 515 51 587 83 131 267 146 352 27
46 -66 54 -127 54 -452 0 -168 -3 -357 -7 -420 -9 -138 3 -184 53 -214 35 -20
50 -21 261 -12 112 5 127 7 143 27 15 19 17 49 18 278 1 434 4 580 10 573 3
-4 16 -45 29 -92 42 -151 101 -275 176 -367 25 -30 43 -73 69 -160 149 -493
330 -829 526 -975 101 -75 187 -105 353 -123 59 -6 101 -17 231 -60 55 -18
120 -36 145 -40 25 -4 54 -9 65 -11 49 -10 276 -3 336 10 90 20 139 46 241
132 185 155 330 233 523 281 25 6 166 32 180 32 15 1 100 72 194 164 89 87
210 236 232 286 12 27 17 30 49 24 57 -10 222 -6 286 7 71 14 188 69 233 110
18 17 36 30 41 30 13 0 27 -29 35 -72 4 -20 14 -39 23 -43 22 -8 390 -8 403 1
8 4 9 31 4 83 -4 42 -9 256 -10 476 -3 453 -6 483 -46 620 -12 38 -29 86 -40
106 -21 41 -22 40 51 78 158 84 287 222 322 346 47 164 -61 313 -284 392 -92
32 -232 40 -327 18 -210 -50 -391 -213 -501 -451 -23 -49 -45 -95 -49 -103 -4
-8 -16 -16 -27 -17 -123 -19 -342 -96 -345 -122 0 -4 -2 -18 -4 -32 -3 -25 36
-191 56 -242 11 -28 17 -31 52 -31 22 0 22 2 -8 -58 -64 -125 -133 -165 -272
-156 -48 4 -102 9 -118 12 l-30 7 -3 -79 c-12 -380 -117 -623 -332 -764 -62
-41 -205 -93 -295 -108 -78 -12 -285 -12 -355 0 -225 40 -401 162 -504 350
-79 145 -106 271 -101 474 7 280 108 481 314 619 209 140 427 172 748 111 41
-8 78 -17 83 -20 6 -4 6 3 0 20 -21 56 -12 107 40 213 28 56 50 108 50 115 0
7 4 17 9 23 11 12 39 132 49 209 37 295 -100 492 -426 609 -180 64 -292 49
-402 -54 -49 -47 -96 -71 -126 -65 -10 2 -26 4 -35 4 -8 1 -33 17 -54 37 -83
76 -125 95 -208 95 -57 0 -134 -33 -222 -95 -121 -87 -212 -209 -275 -371
-112 -285 -204 -471 -290 -589 -59 -80 -65 -85 -177 -110 -128 -28 -243 -94
-329 -189 l-49 -54 -40 61 c-25 37 -67 81 -109 114 -52 40 -75 65 -93 103 -12
28 -40 71 -62 95 -127 144 -232 347 -372 717 -27 71 -65 160 -86 199 -53 101
-151 201 -269 274 -100 61 -136 76 -164 67z m5180 -2239 c6 -6 11 -20 11 -30
0 -177 -20 -245 -88 -309 -62 -57 -214 -77 -272 -35 -79 56 -91 190 -24 279
31 41 133 91 206 100 73 10 155 7 167 -5z"/>
<path d="M2280 4225 c-94 -16 -106 -22 -123 -56 -20 -42 -9 -76 34 -111 28
-23 46 -29 90 -30 86 -2 115 27 125 127 8 75 -17 89 -126 70z"/>
<path d="M3930 3256 c-107 -22 -182 -105 -230 -256 -51 -160 -39 -318 36 -476
58 -122 143 -176 267 -168 105 7 175 63 228 179 36 81 50 164 48 288 -2 150
-37 266 -105 346 -31 37 -101 80 -141 87 -15 2 -32 6 -38 8 -5 2 -35 -2 -65
-8z"/>
<path d="M1272 1507 c5 -26 177 -226 303 -353 127 -128 216 -207 330 -294 39
-30 97 -79 130 -110 103 -96 242 -194 378 -269 79 -42 309 -148 377 -173 30
-12 60 -24 65 -28 6 -4 27 -13 47 -18 34 -9 40 -8 53 11 21 30 19 64 -5 77
-11 6 -20 9 -20 6 0 -8 -99 24 -204 65 -148 60 -277 124 -416 207 -217 130
-236 146 -664 555 -358 342 -383 364 -374 324z"/>
<path d="M1987 1379 c-24 -14 -21 -42 6 -66 20 -18 99 -73 376 -260 51 -35
100 -63 109 -61 20 4 37 32 29 50 -4 12 -418 297 -492 340 -6 4 -18 2 -28 -3z"/>
<path d="M1813 1213 c-14 -5 -17 -42 -5 -58 4 -5 49 -47 99 -93 76 -68 98 -83
120 -80 25 3 28 7 26 34 -4 50 18 60 65 30 41 -26 92 -84 92 -104 0 -19 -25
-14 -55 10 -31 24 -58 16 -63 -19 -3 -18 13 -35 142 -146 12 -10 32 -28 46
-40 14 -12 42 -37 63 -55 43 -37 72 -41 87 -11 12 22 -5 42 -114 134 -41 36
-92 102 -84 111 2 1 26 -11 53 -28 28 -17 66 -40 85 -52 56 -32 311 -159 360
-179 25 -10 54 -22 65 -27 163 -68 430 -143 580 -165 23 -3 50 -7 60 -9 108
-20 448 -29 442 -12 -6 22 -74 45 -147 50 -41 3 -86 8 -100 11 -14 2 -45 7
-70 9 -316 36 -806 204 -1075 368 -146 90 -197 124 -295 197 -63 47 -122 92
-132 99 -13 10 -19 9 -32 -4 -21 -21 -21 -24 14 -62 34 -38 36 -45 15 -62 -15
-13 -38 5 -185 137 -25 23 -34 26 -57 16z"/>
<path d="M2592 971 c-6 -4 -13 -18 -14 -31 -3 -22 6 -29 62 -57 201 -100 614
-243 785 -273 33 -5 69 -12 81 -14 35 -7 165 -18 258 -21 109 -4 142 -17 155
-59 15 -50 20 -145 8 -153 -6 -3 -45 -7 -86 -9 -104 -3 -202 -14 -222 -25 -17
-9 -26 -26 -34 -70 -2 -12 -6 -23 -7 -24 -2 -1 -37 2 -78 7 -41 5 -100 11
-130 12 -30 2 -72 8 -93 14 -82 22 -146 -5 -150 -64 -2 -29 -2 -29 108 -57
174 -44 324 -61 540 -61 119 0 324 11 346 18 8 3 39 7 69 10 210 20 494 99
670 187 85 43 238 154 227 165 -2 2 -33 -9 -68 -25 -122 -55 -294 -109 -434
-137 -211 -42 -356 -56 -710 -69 -82 -3 -166 -8 -185 -10 -32 -3 -36 -1 -38
21 -2 23 1 24 66 25 37 1 96 3 132 4 36 2 90 4 121 4 30 1 63 7 73 14 17 12
17 17 2 78 -9 35 -18 75 -21 89 -9 49 -40 126 -65 165 -29 44 -10 41 -185 34
-74 -2 -176 7 -315 30 -104 17 -113 20 -242 56 -187 53 -283 90 -584 220 -16
8 -35 10 -42 6z"/>
<path d="M2485 644 c-18 -19 -19 -38 -2 -51 6 -6 71 -31 142 -57 72 -26 139
-51 150 -56 41 -18 95 -31 105 -25 19 11 11 51 -12 63 -28 14 -303 121 -340
132 -20 6 -32 4 -43 -6z"/>
<path d="M3085 409 c-11 -34 14 -48 144 -80 68 -16 133 -35 144 -41 28 -15
118 -20 133 -7 18 15 12 50 -11 64 -11 7 -47 18 -80 24 -33 5 -114 22 -180 36
-144 30 -142 30 -150 4z"/>
</g>
</svg>
