<svg id="Layer_1" data-name="Layer 1" xmlns="http://www.w3.org/2000/svg" viewBox="0 0 279.31 93.74"><defs><style>.cls-1{fill:#f89a25;}.cls-2{fill:#f79923;}.cls-3{fill:#272324;}.cls-4{fill:#272223;}.cls-5{fill:#302b2c;}.cls-6{fill:#2e2a2a;}.cls-7{fill:#302c2c;}.cls-8{fill:#2f2a2a;}.cls-9{fill:#2c2829;}.cls-10{fill:#2b2728;}.cls-11{fill:#322e2e;}.cls-12{fill:#d0322d;}.cls-13{fill:#d02f2c;}.cls-14{fill:#d02d2b;}.cls-15{fill:#3c3737;}.cls-16{fill:#373233;}.cls-17{fill:#f89b27;}.cls-18{fill:#d0332e;}.cls-19{fill:#3f3a3a;}.cls-20{fill:#f99d2d;}.cls-21{fill:#595353;}.cls-22{fill:#f8d0a0;}</style></defs><path class="cls-1" d="M30.19.24A14.72,14.72,0,0,1,31.71,1.3,10.65,10.65,0,0,1,33.2,3a1.85,1.85,0,0,1,.16,1.69,23.72,23.72,0,0,0-.75,3.21,6.35,6.35,0,0,0,.4,3.59,9.32,9.32,0,0,1,1,4.1c0,1.66-1,2.2-2.41,1.37a7,7,0,0,1-3.05-3.51c-.82-2.09-1.62-4.18-2.33-6.31a26.73,26.73,0,0,1-.77-3.44,1.53,1.53,0,0,1,.95-1.73L29.71.24Z"/><path class="cls-2" d="M24.9,44.87a7,7,0,0,1,.65-1,11.39,11.39,0,0,0,2.06-3.29c.81-1.93,1.58-3.87,2.45-5.77a10.36,10.36,0,0,1,4.6-4.94,3.48,3.48,0,0,1,4.44.72,1.58,1.58,0,0,0,2.4.28,2.64,2.64,0,0,0,.74-.58c1.13-1.38,2.61-1.34,4.12-1a12.72,12.72,0,0,1,5.14,2.6,5.16,5.16,0,0,1,1.75,3.52,11.83,11.83,0,0,1-1,6.1c-.38.91-.83,1.78-1.28,2.72l.36,1.37c-.4-.1-.71-.17-1-.26a12.23,12.23,0,0,0-10.71,1.74,9.4,9.4,0,0,0-3.67,6,12.36,12.36,0,0,0,.37,6.76,9.61,9.61,0,0,0,8,6.55A11.73,11.73,0,0,0,52.51,65a9.63,9.63,0,0,0,4.78-7.86c.12-1.2,0-2.42,0-3.72.59.17,1.14.3,1.67.49a2.37,2.37,0,0,0,2.71-.65,5.22,5.22,0,0,0,1.75-2.55v.05l.29-.32a3.5,3.5,0,0,1,.51-.26,10.13,10.13,0,0,1,5.44-.61,2.32,2.32,0,0,1,1.95,1.34l-1.74,1.45-.7.07a14.58,14.58,0,0,0-6,1.85,6.75,6.75,0,0,0-2.54,8.86,6.45,6.45,0,0,0,3.83,3.13,22.58,22.58,0,0,1-6,6.48,13.9,13.9,0,0,0-9.12,3.82C46.84,79.05,44,79,40.93,78.85a20.11,20.11,0,0,1-3.3-.87c-1.3-.31-2.61-.62-3.93-.81a6.71,6.71,0,0,1-3.51-1.57,14.93,14.93,0,0,1-3.31-4.15,42.9,42.9,0,0,1-3.81-9.65,3.37,3.37,0,0,0-.6-1.25,12.64,12.64,0,0,1-2.76-6.43L19.59,53a7.73,7.73,0,0,1,.42-1.2,2.84,2.84,0,0,1,3.08-1.51,2.52,2.52,0,0,1,2.22,2.16,10.06,10.06,0,0,1,.32,2.32c0,3.44,0,6.88,0,10.32,0,.34.05.67.07,1h6.11c0-.23.05-.39.05-.54,0-4.23,0-8.46,0-12.69a9.74,9.74,0,0,0-.29-2.34c-.66-2.55-2-4.57-4.69-5.28C26.23,45.05,25.56,45,24.9,44.87Z"/><path class="cls-3" d="M24.9,44.87c.66.11,1.33.18,2,.34,2.73.71,4,2.73,4.69,5.28a9.74,9.74,0,0,1,.29,2.34c0,4.23,0,8.46,0,12.69,0,.15,0,.31-.05.54H25.72c0-.33-.07-.66-.07-1,0-3.44,0-6.88,0-10.32a10.06,10.06,0,0,0-.32-2.32,2.52,2.52,0,0,0-2.22-2.16A2.84,2.84,0,0,0,20,51.77a7.73,7.73,0,0,0-.42,1.2l-.06,1.13q0,5.4,0,10.8v1.18H13.14V64.75c0-3.63,0-7.27-.06-10.91a5.68,5.68,0,0,0-.31-1.73A2.76,2.76,0,0,0,8,51.25,3.92,3.92,0,0,0,7.06,54c0,3.6,0,7.2,0,10.8v1.16A26.8,26.8,0,0,1,.65,66V45.4c1.68,0,3.48,0,5.39,0l.25,2.74A8.67,8.67,0,0,1,10,45.3a8.8,8.8,0,0,1,4.08-.21c.38.1.76.16,1.14.24v0l.18.18a5.7,5.7,0,0,1,2.82,2.72c1-.82,2-1.68,3.06-2.38A7.86,7.86,0,0,1,24.9,44.87Z"/><path class="cls-4" d="M71.63,50.92a2.32,2.32,0,0,0-1.95-1.34,10.13,10.13,0,0,0-5.44.61,3.5,3.5,0,0,0-.51.26l-.29.32v-.05l-.91.2-1.2-4.07a15.88,15.88,0,0,1,5.42-1.79L68.27,45c3.37-.19,6.49.32,8.76,3.17a10.44,10.44,0,0,1,1.42,5.52c0,3.19,0,6.38.06,9.57,0,.93.15,1.86.23,2.85H73l-.5-2c-2.34,2.34-5.08,2.73-8.06,2.14a6.45,6.45,0,0,1-3.83-3.13,6.75,6.75,0,0,1,2.54-8.86,14.58,14.58,0,0,1,6-1.85l.7-.07,2.2-.15ZM67,57.85a2.34,2.34,0,0,0-.28,3.09,2.39,2.39,0,0,0,2.71,1A3.23,3.23,0,0,0,72,59.7a7,7,0,0,0,.1-3.3,14.78,14.78,0,0,0-2,.12A4.7,4.7,0,0,0,67,57.85Z"/><path class="cls-1" d="M14.81,11.72C17,13.14,18.93,15,19.52,17.87s1.26,5.93,1.89,8.9a4.64,4.64,0,0,0,.95,1.86,13.65,13.65,0,0,1,1.75,2.8,2.36,2.36,0,0,1-1.9,3.45,2.08,2.08,0,0,1-2.07-.58,13.14,13.14,0,0,1-3-5.18c-.56-1.72-1-3.48-1.53-5.21A8.27,8.27,0,0,0,15,22.64,26.25,26.25,0,0,1,12.28,16a9,9,0,0,1-.17-1.16C12,13,12.65,11.78,14.81,11.72Z"/><path class="cls-1" d="M15.22,45.33c-.38-.08-.76-.14-1.14-.24A8.8,8.8,0,0,0,10,45.3c-2.19-2.37-4.32-4.8-6.61-7.08A8,8,0,0,1,.77,31.56a10.06,10.06,0,0,0-.16-2.11,3.87,3.87,0,0,1,1.66-3.13,12.26,12.26,0,0,1,5.07,3.47,6.42,6.42,0,0,1,.9,1.51c1.22,2.85,2.42,5.72,3.61,8.58A14.65,14.65,0,0,0,14,43.09,3.94,3.94,0,0,1,15.22,45.33Z"/><path class="cls-1" d="M48.25,4.29a14.88,14.88,0,0,1,1.49,2,5.1,5.1,0,0,1,.65,2.1c.13,2.83.21,5.67.19,8.5a11.55,11.55,0,0,1-2.23,6.72,1.83,1.83,0,0,1-3.1.18,6.24,6.24,0,0,1-1.78-4.13A45.55,45.55,0,0,1,44.09,12a5.48,5.48,0,0,0,0-1.28,9.44,9.44,0,0,1,.35-3.85C45,5,46.14,4.26,48.25,4.29Z"/><path class="cls-5" d="M110,31.64l4.23-11.81h2.63c.31,4.92.62,9.87.93,14.91h-2q-.32-5.93-.63-11.88l-.12,0L110.68,34.7h-1.63l-3.9-11.64H105c-.23,3.88-.46,7.75-.7,11.7h-1.94c.26-4.95.66-9.92,1-14.94H106C107.35,23.65,108.8,27.52,110,31.64Z"/><path class="cls-2" d="M77,48.15c-2.27-2.85-5.39-3.36-8.76-3.17l-1.52.08a11.68,11.68,0,0,1,4.67-6.47c3.38-2.37,7.26-1.39,10,.8a3.39,3.39,0,0,1,.89,3.88,7.11,7.11,0,0,1-1.17,1.89A11.69,11.69,0,0,1,77,48.15Z"/><path class="cls-6" d="M259.16,55.94a4.84,4.84,0,0,1-5,1.33,4.71,4.71,0,0,1-3.37-3.9,6.84,6.84,0,0,1,.49-4.5,5,5,0,0,1,5.57-2.82,4.08,4.08,0,0,1,2.45,1.65l.1-1.46h1.83v1.43c0,2.65,0,5.3,0,7.95a17.23,17.23,0,0,1-.47,3.5,3.84,3.84,0,0,1-2.45,2.71,7.93,7.93,0,0,1-6.65-.34l.43-1.57a22.1,22.1,0,0,0,3.05.7c2.13.18,3.41-.81,3.76-2.46C259,57.43,259.06,56.68,259.16,55.94Zm-.06-4.29H259c0-.36,0-.72,0-1.07a3.09,3.09,0,0,0-2.12-2.85A3.12,3.12,0,0,0,253.58,49a5.71,5.71,0,0,0,0,5.51,3,3,0,0,0,3.12,1.21,2.64,2.64,0,0,0,2.2-2.2C259,52.91,259,52.28,259.1,51.65Z"/><path class="cls-6" d="M224.49,27.28a9.11,9.11,0,0,1-1.14,4.44A6.66,6.66,0,0,1,216.53,35a6.59,6.59,0,0,1-5.65-5.32,9.73,9.73,0,0,1,.68-6.46,6.63,6.63,0,0,1,6.83-3.71,6.42,6.42,0,0,1,5.75,5.17C224.33,25.55,224.37,26.42,224.49,27.28Zm-2.21,0a7.38,7.38,0,0,0-1.08-4.05,4.29,4.29,0,0,0-7.19-.21,8.16,8.16,0,0,0,0,8.41,4.27,4.27,0,0,0,7.18-.11A7.47,7.47,0,0,0,222.28,27.32Z"/><path class="cls-7" d="M173.23,25.66a5,5,0,0,1,2.56-1.79,3.36,3.36,0,0,1,4,1.86,6,6,0,0,1,.55,2.16c.06,2.25,0,4.5,0,6.84h-2c0-.24-.08-.54-.08-.83,0-1.7,0-3.4,0-5.1a7,7,0,0,0-.14-1.52A2.1,2.1,0,0,0,176,25.49a2.51,2.51,0,0,0-2.26,2.09,9.31,9.31,0,0,0,0,1.18v6h-2c0-.3-.07-.6-.07-.9,0-1.78,0-3.55,0-5.33a5.46,5.46,0,0,0-.22-1.51,2,2,0,0,0-3.4-1,3,3,0,0,0-1,2.41c0,1.7,0,3.4,0,5.1v1.21h-2V24.07h1.58l.29,1.12C170,23.15,171.33,23.25,173.23,25.66Z"/><path class="cls-1" d="M42.37,55.68a30,30,0,0,1,.74-3.31,3.92,3.92,0,0,1,2.55-2.57,3.46,3.46,0,0,1,3.85,1.56,8.34,8.34,0,0,1,1,5.56,11.3,11.3,0,0,1-.93,3,3.08,3.08,0,0,1-3.05,1.83,3.39,3.39,0,0,1-3.06-1.86A9.27,9.27,0,0,1,42.37,55.68Z"/><path class="cls-6" d="M107,41.81h2.55c1.77,5.16,3.54,10.34,5.35,15.64h-2.29L111,52.68h-5.48l-1.63,4.79h-2.21C103.45,52.2,105.22,47,107,41.81Zm-1,9.08h4.52c-.77-2.28-1.5-4.49-2.28-6.82Z"/><path class="cls-8" d="M153.54,57.47h-2.08V40.94h2.07v6.68c.41-.35.66-.59.93-.8a4,4,0,0,1,6.45,2.49,14.41,14.41,0,0,1,.19,2.46c0,1.86,0,3.71,0,5.66h-2.19a8.89,8.89,0,0,1-.07-.89c0-1.7,0-3.4,0-5.1,0-.24,0-.47,0-.71,0-1.9-.92-3-2.47-3a2.88,2.88,0,0,0-2.82,3c0,1.81,0,3.63,0,5.45Z"/><path class="cls-6" d="M243.43,51.64c0,2.52-.84,4.47-3.09,5.57a5.47,5.47,0,0,1-8-4.74c-.13-2.34.5-4.42,2.63-5.7a5.51,5.51,0,0,1,5.85-.08A5.32,5.32,0,0,1,243.43,51.64Zm-8.87.38a4.32,4.32,0,0,0,1,3,3,3,0,0,0,4.76-.2,5.38,5.38,0,0,0,0-6,3,3,0,0,0-4.56-.35A4.57,4.57,0,0,0,234.56,52Z"/><path class="cls-9" d="M208.43,57.76A5.26,5.26,0,0,1,203,52.41a7.28,7.28,0,0,1,.49-3.23A5.49,5.49,0,0,1,209.16,46a5.25,5.25,0,0,1,4.77,4.22,7.51,7.51,0,0,1,0,3.4A5.39,5.39,0,0,1,208.43,57.76Zm3.42-5.88a4.9,4.9,0,0,0-.78-2.91,3.07,3.07,0,0,0-5-.19,5.44,5.44,0,0,0,0,6.18,2.93,2.93,0,0,0,4.45.25A4.48,4.48,0,0,0,211.85,51.88Z"/><path class="cls-6" d="M274,54.8l2.89-8.56h2.28c-.2.56-.37,1-.55,1.49-1.12,2.94-2.21,5.89-3.4,8.79a22.63,22.63,0,0,1-1.88,3.54,5.73,5.73,0,0,1-3.69,2.57l-.53-1.76a6.22,6.22,0,0,0,3.68-3.79L268.5,46.25h2.37Z"/><path class="cls-10" d="M195.75,52.33H188c-.11,2.18,1.17,3.66,3.2,3.67,1.16,0,2.33-.18,3.64-.3l.38,1.34a8.57,8.57,0,0,1-6.27.3,4.67,4.67,0,0,1-3-3.45,7.26,7.26,0,0,1,.38-4.86,5.1,5.1,0,0,1,6.3-2.86,3.75,3.75,0,0,1,2.4,2A6.6,6.6,0,0,1,195.75,52.33Zm-2.12-1.65c.11-1.85-.91-3.09-2.57-3.16s-2.95,1.21-3.07,3.16Z"/><path class="cls-9" d="M169.69,47a7.16,7.16,0,0,1,5.35-.81,3.6,3.6,0,0,1,2.75,3.57c.05,1,0,2,0,3.08,0,.79,0,1.58,0,2.37s.12,1.49.19,2.3h-1.89l-.29-1.16a4.53,4.53,0,0,1-3.62,1.46,3.29,3.29,0,0,1-3.15-2.27,3.65,3.65,0,0,1,1.28-3.91,7.19,7.19,0,0,1,3.77-1.25c.47,0,.95,0,1.4,0a2.08,2.08,0,0,0-2.39-2.73,21.85,21.85,0,0,0-3,.61Zm6,4.8a8.29,8.29,0,0,0-1.42.1,11.55,11.55,0,0,0-2.33.76,1.87,1.87,0,0,0-.81,2.17,1.64,1.64,0,0,0,1.47,1.35,2.67,2.67,0,0,0,3.09-2.36Z"/><path class="cls-6" d="M279.36,29.31a5.41,5.41,0,0,1-3.42,5.41,5.17,5.17,0,0,1-7.12-4.33,7.17,7.17,0,0,1,.26-3,5.17,5.17,0,0,1,5.24-3.62,5,5,0,0,1,4.85,3.92A12.66,12.66,0,0,1,279.36,29.31Zm-8.43,0a4.34,4.34,0,0,0,.71,2.78,2.81,2.81,0,0,0,4.83,0,5.26,5.26,0,0,0-.09-5.57,2.85,2.85,0,0,0-4.57-.09A4.17,4.17,0,0,0,270.93,29.34Z"/><path class="cls-6" d="M187.33,29.5c0-3.1,1.81-5.36,4.7-5.7,3.17-.38,6.2,1.69,5.91,6.05A5.34,5.34,0,0,1,190,34.44,5.44,5.44,0,0,1,187.33,29.5Zm5.29-4.13a2.71,2.71,0,0,0-2.38,1.27,5.23,5.23,0,0,0,0,5.59,2.83,2.83,0,0,0,4.65.07,5.09,5.09,0,0,0,.06-5.76A2.7,2.7,0,0,0,192.62,25.37Z"/><path class="cls-11" d="M150.33,29.85H143a3,3,0,0,0,2.1,3.37,6.37,6.37,0,0,0,3.62-.12l.68-.19.4,1.28c-2.45,1.53-7.49,1.39-8.67-2.49a6.73,6.73,0,0,1,.52-5.48A4.87,4.87,0,0,1,147.57,24a3.71,3.71,0,0,1,2,1.61A6.28,6.28,0,0,1,150.33,29.85Zm-7.44-1.56h5.41c0-1.81-.79-2.83-2.17-2.94C144.34,25.2,143.27,26.13,142.89,28.29Z"/><path class="cls-8" d="M251.9,27.86c0-2.56-1.74-2.71-3.55-2.39a11.07,11.07,0,0,0-1.69.6l-.44-1.33a6.32,6.32,0,0,1,5.66-.56,3.27,3.27,0,0,1,2,2.63,9.1,9.1,0,0,1,.12,1.65c0,2.08,0,4.17,0,6.31h-1.63l-.21-.9c-.11,0-.25,0-.32.06A4.64,4.64,0,0,1,249,35.08,3.23,3.23,0,0,1,245.63,33a3.41,3.41,0,0,1,1.24-3.9A6.39,6.39,0,0,1,250,28C250.58,27.94,251.21,27.91,251.9,27.86Zm.06,1.5a10.64,10.64,0,0,0-1.85.11,6.16,6.16,0,0,0-1.75.65,1.75,1.75,0,0,0-.81,1.83,1.64,1.64,0,0,0,1.07,1.44,2.64,2.64,0,0,0,3.33-2A20.07,20.07,0,0,0,252,29.36Z"/><path class="cls-5" d="M226.78,24h1.64l.29,1.39a5,5,0,0,1,2.4-1.5,3.71,3.71,0,0,1,4.61,2.45,6.1,6.1,0,0,1,.29,1.74c0,2.06,0,4.11,0,6.16a4.07,4.07,0,0,1-.07.51h-2a8.91,8.91,0,0,1-.08-.89c0-1.74,0-3.48,0-5.22a5.39,5.39,0,0,0-.06-1.06,2.32,2.32,0,0,0-2.45-2.1,2.79,2.79,0,0,0-2.51,2.29,7.76,7.76,0,0,0,0,1.18c0,1.89,0,3.79,0,5.77h-2.08Z"/><path class="cls-11" d="M127.64,24h2V34.74H128l-.11-1.43a11.3,11.3,0,0,1-1,.9,4,4,0,0,1-4.14.55,3.61,3.61,0,0,1-2.16-3.41c-.12-2.4,0-4.81,0-7.29h2c0,.28.07.58.07.89,0,1.86,0,3.71,0,5.57a3.68,3.68,0,0,0,.08.82c.24.91.62,1.73,1.7,1.91A2.52,2.52,0,0,0,127.16,32a4.24,4.24,0,0,0,.46-1.79c.06-1.66,0-3.32,0-5Z"/><path class="cls-7" d="M152.66,24h2c0,.31.08.61.08.91,0,1.66,0,3.32,0,5,0,.31,0,.63,0,1,.15,1.59,1,2.44,2.33,2.43a2.64,2.64,0,0,0,2.64-2.63c.05-1.7,0-3.4,0-5.1V24.06h2.06v10.7H160l-.1-1.37-.6.54a4.26,4.26,0,0,1-3.14,1.15,3.48,3.48,0,0,1-3.3-2.6,4.34,4.34,0,0,1-.23-1.16C152.65,28.92,152.66,26.51,152.66,24Z"/><path class="cls-12" d="M104.51,76.35h-2l1.73-9h2l-.56,3.41h3.1l.71-3.42h2c-.58,3-1.15,6-1.72,9.07h-2l.65-3.66h-3.16Z"/><path class="cls-12" d="M238.18,76.36h-2l.65-3.69h-3.15l-.75,3.68h-2l1.72-9h2l-.6,3.39h3.15c.22-1.1.44-2.21.68-3.39h2C239.39,70.34,238.73,73.31,238.18,76.36Z"/><path class="cls-5" d="M202.54,34.77h-2V25.7l-1.43-.14V24l1.3-.09c.09-.59.16-1.17.25-1.74.45-2.82,2.7-4.11,5.5-3.08l-.22,1.4c-.16.05-.24.1-.3.09-1.79-.44-2.62.06-3,1.84a12.84,12.84,0,0,0-.11,1.51h2.55v1.6h-2.52Z"/><path class="cls-8" d="M143.6,46.57l-.47,1.61c-2.14-.74-4.17-.91-5.64,1.17a4.73,4.73,0,0,0,0,5c1.5,2.07,3.54,1.84,5.68,1.12l.39,1.59a10.34,10.34,0,0,1-1.26.42c-2.11.44-4.21.48-5.91-1.1a5.9,5.9,0,0,1-1.48-6.53A5.35,5.35,0,0,1,139.67,46,6.87,6.87,0,0,1,143.6,46.57Z"/><path class="cls-11" d="M62,87.31a22.53,22.53,0,0,1-9.39,4.22,45.83,45.83,0,0,1-11.1.38c-1.77-.15-3.53-.35-5.29-.56A11.78,11.78,0,0,1,34.94,91l.72-1.22,3.3.42a44.64,44.64,0,0,0,9.1,0c1.18-.1,2.36-.15,3.54-.25a31,31,0,0,0,9-2.55l1.09-.43Z"/><path class="cls-7" d="M132.1,34.22l.43-1.43a8.34,8.34,0,0,0,1.7.54,4.75,4.75,0,0,0,2.06-.11,1.34,1.34,0,0,0,.38-2.37,6.87,6.87,0,0,0-1.33-.74,15.52,15.52,0,0,1-1.58-.79,2.65,2.65,0,0,1-1.36-2.68,2.87,2.87,0,0,1,1.78-2.45,5.11,5.11,0,0,1,4.65.25l-.48,1.41a15.08,15.08,0,0,0-2-.46c-1.11-.11-1.69.24-1.91,1s.12,1.31,1.13,1.8c.56.28,1.16.49,1.72.78a3.1,3.1,0,0,1,1.92,3.1,3.23,3.23,0,0,1-2.62,2.84A5.7,5.7,0,0,1,132.1,34.22Z"/><path class="cls-7" d="M222.12,40.93h1.94c.26.89.37,12.18.15,16.5h-2.09Z"/><path class="cls-13" d="M268.42,66.8h2l-1.74,9.52c-.44.29-1,0-1.62.15l-.17-.69a10.37,10.37,0,0,1-1.16.64A2,2,0,0,1,262.87,75a4.31,4.31,0,0,1,3.77-5.36c.36,0,.71,0,1.16,0C268,68.7,268.21,67.76,268.42,66.8ZM265.61,75c1.31-.48,1.84-1.56,1.78-3.59a1.64,1.64,0,0,0-2.19,1A1.85,1.85,0,0,0,265.61,75Z"/><path class="cls-11" d="M239.22,25.64h-1.41V24l1.56-.11V22l2.08-.6V24h2.71v1.67H241.5c0,2.17,0,4.25,0,6.33a4.08,4.08,0,0,0,.48,1.26h2v1.61a10.17,10.17,0,0,1-1.08.24,2.79,2.79,0,0,1-3.45-2.53,8.68,8.68,0,0,1-.09-1.53c0-1.73,0-3.47,0-5.2C239.36,25.77,239.31,25.74,239.22,25.64Z"/><path class="cls-6" d="M122.48,57.45V46.27h1.77l.14,1.85c.9-1.5,2-2.36,3.69-2.13v1.92c-.36,0-.71.05-1,.12a2.65,2.65,0,0,0-2.24,2.29,17.39,17.39,0,0,0-.14,2.71c0,1.45,0,2.9,0,4.42Z"/><path class="cls-13" d="M249.5,69.83c-.24,1.28-.46,2.32-.62,3.36s-.29,2.09-.43,3.18h-1.71l0-.79c-.07,0-.16,0-.2,0a6.53,6.53,0,0,1-.61.56,2.09,2.09,0,0,1-3.39-1.56,4.48,4.48,0,0,1,4.27-5A18.27,18.27,0,0,1,249.5,69.83Zm-2.26,1.5a2,2,0,0,0-2.36,1.32,1.72,1.72,0,0,0,.4,2.34C247.07,74.37,246.77,72.66,247.24,71.33Z"/><path class="cls-13" d="M142.45,72.56a4,4,0,0,1-3.23,4,2.84,2.84,0,0,1-3.56-3.37,3.89,3.89,0,0,1,4-3.55A2.66,2.66,0,0,1,142.45,72.56Zm-4.8,1.15c0,.17.08.36.15.54s.21.41.3.58c1.06.24,1.31.14,1.78-.68a2.27,2.27,0,0,0-.14-2.89C138.46,71.22,138.17,71.56,137.65,73.71Z"/><path class="cls-14" d="M153.23,79.47l-.4-1.68A3.83,3.83,0,0,0,155,75.92q-.63-2.92-1.3-6.09h2.1l.63,4.13,1.72-4.13h2a5.08,5.08,0,0,1-.25.72c-1,2-2,3.94-3,5.87a6,6,0,0,1-3.25,3C153.59,79.42,153.47,79.43,153.23,79.47Z"/><path class="cls-13" d="M198.26,73.62a4,4,0,0,1,4.34-4,2.62,2.62,0,0,1,2.49,2.43,4.06,4.06,0,0,1-3.68,4.55A2.74,2.74,0,0,1,198.26,73.62Zm2.64,1.3a1.28,1.28,0,0,0,1.67-.86c.41-.9.78-1.84,0-2.73-1-.17-1.25-.08-1.7.64A2.43,2.43,0,0,0,200.9,74.92Z"/><path class="cls-14" d="M214.15,76.37h-1.6l-.35-.47a11.88,11.88,0,0,1-1.32.61,1.68,1.68,0,0,1-2.36-1.77,32.8,32.8,0,0,1,.5-3.38c.08-.5.21-1,.33-1.54h2l-.78,4.61c.59.7,1.09.51,1.42.06a4.81,4.81,0,0,0,.76-1.56c.26-1,.41-2,.61-3.08h2C215,72,214.56,74.19,214.15,76.37Z"/><path class="cls-14" d="M253.64,69.8h1.59l.3.47a.83.83,0,0,0,.23,0,8.29,8.29,0,0,1,1.18-.54c1.48-.39,2.47.36,2.38,1.87-.07,1.1-.33,2.18-.51,3.27-.08.46-.2.92-.31,1.47h-2l.79-4.6c-.63-.67-1.12-.46-1.44,0a4.84,4.84,0,0,0-.77,1.56c-.27,1-.41,2-.62,3.07h-2C252.83,74.13,253.23,72,253.64,69.8Z"/><path class="cls-13" d="M176.74,69.85l.13.53a.67.67,0,0,0,.2,0,7.85,7.85,0,0,1,1.36-.68,1.65,1.65,0,0,1,2.26,1.75c-.2,1.64-.47,3.26-.71,4.92h-2.09c.15-.87.29-1.7.44-2.53a3.79,3.79,0,0,0,.09-2.42,1,1,0,0,0-1.33.46,7.26,7.26,0,0,0-.69,1.74c-.23.88-.36,1.78-.54,2.73h-2c.41-2.18.8-4.3,1.21-6.5Z"/><path class="cls-12" d="M192.9,71l2.22-3.73h2.35c-.16.28-.3.54-.47.78-.55.77-1.07,1.57-1.69,2.28a8.28,8.28,0,0,0-2.2,5c0,.31-.12.62-.2,1l-1,.07c-.31,0-.62,0-1,0,.14-.78.2-1.48.39-2.14a4.8,4.8,0,0,0-.19-3.11c-.46-1.25-.86-2.53-1.31-3.87H192Z"/><path class="cls-7" d="M259,34.78h-2V24.05h1.69l.16,1.62c.86-1.23,1.84-2.06,3.44-1.88v1.85c-2.49.32-3.23,1.18-3.23,3.8,0,1.66,0,3.32,0,5A2.87,2.87,0,0,1,259,34.78Z"/><path class="cls-15" d="M46,84.55a22.82,22.82,0,0,1,1.53,5.09c-2.22-.14-4.28.22-6.34.2-.11-.83.31-.83.71-.86l4.43-.28-.81-3c-6.47.28-12.25-2-18.08-4.62l.5-.64a47.1,47.1,0,0,0,8.7,3.28C39.65,84.44,42.68,85.12,46,84.55Z"/><path class="cls-16" d="M45.23,87.45a11,11,0,0,1-4.56,0,44,44,0,0,1-14.28-4.71A28.82,28.82,0,0,1,21,78.91c-.37-.34-.69-.74-1-1.13.6-.41.88,0,1.19.3a39,39,0,0,0,8.43,5.21A40.17,40.17,0,0,0,44,86.88a8.71,8.71,0,0,1,1.31.27Z"/><path class="cls-17" d="M35,26.8c-2.42-1.25-4.13-3.21-4.09-4.75.8-1.12,2.1-1.32,3.51-1.59,1.44,1.2,2.87,2.46,2.65,4.6A3.27,3.27,0,0,1,35,26.8Z"/><path class="cls-18" d="M119.78,76.05l.53-1.34c.84,0,1.67.74,2.46.05.08-.68-.4-.87-.81-1.08a2,2,0,0,1-1.31-2,2.25,2.25,0,0,1,2-1.93,4.47,4.47,0,0,1,2.7.22l-.43,1.37c-.81,0-1.62-.55-2.32.42l1.08.73c.75.48,1.45,1,1.32,2.05a2.31,2.31,0,0,1-2,1.94A4.44,4.44,0,0,1,119.78,76.05Z"/><path class="cls-18" d="M275.19,71.74c.46.3.8.54,1.16.76.74.46,1.36,1,1.24,2a2.24,2.24,0,0,1-1.71,1.91,4.29,4.29,0,0,1-3.41-.35l.43-1.34c.51.12,1,.24,1.4.32a1,1,0,0,0,1.21-.51,7.44,7.44,0,0,0-.55-.62,1.5,1.5,0,0,0-.41-.23,1.9,1.9,0,0,1-1.27-2,2.21,2.21,0,0,1,1.88-1.87,4.59,4.59,0,0,1,2.77.19l-.41,1.37C276.77,71.37,276,70.77,275.19,71.74Z"/><path class="cls-7" d="M264.44,24h1.83a85,85,0,0,1,.1,10.75l-.9.07c-.31,0-.62,0-.92,0A80.32,80.32,0,0,1,264.44,24Z"/><path class="cls-18" d="M132,68l-.23,1.76,1.35.09-.3,1.47-1.43.14c-.19,1-.37,2.1-.57,3.21l1.12.33-.2,1.54a9.19,9.19,0,0,1-1.44.09,1.46,1.46,0,0,1-1.5-1.82c.13-1.09.36-2.16.54-3.29l-.76-.28.29-1.36.84-.16.24-1.13Z"/><path class="cls-12" d="M169.68,76.35h-2.05l1.73-9h2C170.83,70.33,170.26,73.32,169.68,76.35Z"/><path class="cls-12" d="M147.51,76.36h-2c.38-2.21.75-4.37,1.12-6.56h1.61l.14.87a2.55,2.55,0,0,1,2.31-1l-.31,1.9c-1.63,0-2.14,1.07-2.39,2.4C147.84,74.73,147.68,75.5,147.51,76.36Z"/><path class="cls-13" d="M223.47,69.73l-.37,1.83c-1.53,0-2.1,1-2.34,2.31-.15.81-.32,1.61-.49,2.48h-2c.38-2.18.74-4.29,1.12-6.5H221l.11.83C221.8,70.06,222.41,69.42,223.47,69.73Z"/><path class="cls-14" d="M116,76.37h-2l1.24-6.54h2Z"/><path class="cls-15" d="M21.64,83.76a41.74,41.74,0,0,0,9.14,4.62l2.21.74-.56,1c-2.11-.94-4.13-1.9-6.2-2.74A16.2,16.2,0,0,1,21.39,84Z"/><path class="cls-19" d="M19.93,82.84a44.25,44.25,0,0,1-6.76-6c-.79-.82-1.5-1.7-2.25-2.55l.27-.27,7.38,7L20.2,82.6Z"/><path class="cls-20" d="M21.64,37.78c.81-1,1.7-1.31,3.55-1.2.38,1.26.1,2.25-.77,2.66S22.4,39.12,21.64,37.78Z"/><path class="cls-16" d="M26.79,79.61c-.42.54-.7.44-1,.25l-6.36-4.31.29-.7C22.17,76.4,24.5,77.92,26.79,79.61Z"/><path class="cls-16" d="M265.37,22.3a1.2,1.2,0,0,1-1.27-1.24,1.28,1.28,0,1,1,2.56,0A1.24,1.24,0,0,1,265.37,22.3Z"/><path class="cls-19" d="M34.39,88.06c.8-.23,3.13.16,5.73.92l0,.57C39.71,89.91,35.08,88.7,34.39,88.06Z"/><path class="cls-19" d="M26.18,85.46l.34-.75,5.31,2,0,.68C29.86,86.92,28.14,86.11,26.18,85.46Z"/><path class="cls-15" d="M20.92,80.72c.42,0,.62-.11.75,0a19.74,19.74,0,0,1,4,3.74c-.15,0-.36.15-.43.09-1.19-1-2.37-1.91-3.53-2.9A8.1,8.1,0,0,1,20.92,80.72Z"/><path class="cls-18" d="M117.21,67c.52.81.56,1.22.17,1.63s-1,.47-1.84-.1l0-.86C115.81,67,116.19,66.9,117.21,67Z"/><path class="cls-19" d="M17.11,77.56,17.5,77l3.19,2.85-.44.55A20.73,20.73,0,0,1,17.11,77.56Z"/><path class="cls-21" d="M19.93,82.84l.27-.24,1.44,1.16-.25.25Z"/><path class="cls-21" d="M11.19,74l-.27.27-1-1.08A1.47,1.47,0,0,1,11.19,74Z"/><path class="cls-21" d="M62,87.31l-.29-.26,1-.54.16.27Z"/><path class="cls-22" d="M19.53,54.1,19.59,53l.12,1.15-.09,0Z"/><path class="cls-1" d="M15.39,45.49l-.18-.18Z"/><path class="cls-20" d="M67,57.85l-.28,3.09A2.34,2.34,0,0,1,67,57.85Z"/></svg>